<svg width="256" height="256" viewBox="0 0 256 256" fill="none" xmlns="http://www.w3.org/2000/svg">
<path d="M121.307 0.358432C81.3598 2.43615 44.6797 23.1966 22.0584 56.5574C4.34667 82.6965 -2.97594 114.533 1.43103 146.201C5.67044 176.579 21.0362 204.746 44.3949 224.97C72.4789 249.266 109.226 260.073 146.191 254.929C176.571 250.69 204.755 235.308 224.964 211.968C249.277 183.851 260.069 147.156 254.924 110.176C249.629 72.2073 227.075 38.2098 194.031 18.4044C172.147 5.26788 146.979 -0.965277 121.307 0.358432ZM134.813 5.36842C157.284 6.65862 178.196 13.6458 196.662 26.0283C211.743 36.1321 224.545 49.6205 233.811 65.1699C245.306 84.4223 251.188 105.937 251.171 128.674C251.171 130.936 251.121 132.964 251.07 133.182C250.987 133.45 250.802 132.947 250.4 131.422C247.652 120.699 241.921 113.41 234.565 111.248L233.292 110.88L233.074 110.025C232.621 108.232 230.812 102.854 229.789 100.223C225.098 88.2594 218.831 77.8708 210.385 68.0351C208.408 65.7396 201.974 59.2886 199.728 57.3784C190.596 49.5535 180.76 43.4376 170.086 38.9973L167.153 37.7909L166.064 36.2494C156.53 22.9955 134.595 13.1934 108.003 10.3114L105.506 10.0433L104.099 11.434C99.0045 16.444 95.7202 22.1075 94.4802 27.9888C94.1786 29.3962 94.1116 30.3346 94.0948 32.6301L94.0781 35.5121L90.8943 36.6012C72.8643 42.7339 57.532 53.7424 45.8192 68.9567C43.6576 71.7717 40.0717 77.1503 38.2787 80.2501C33.5869 88.4437 29.5485 98.3296 27.1356 107.579C26.7334 109.104 26.348 110.411 26.2978 110.478C26.2307 110.545 25.4599 110.679 24.5551 110.779C15.8417 111.667 9.07203 118.705 5.93855 130.099C5.62017 131.288 5.31856 132.31 5.26829 132.344C5.11748 132.495 5.1845 124.603 5.35207 121.553C6.64232 99.0837 13.6298 78.1724 26.0129 59.7075C46.3721 29.346 79.1647 9.60764 115.443 5.87109C121.743 5.21762 128.932 5.0333 134.813 5.36842ZM151.034 82.4786C155.39 96.2184 159.043 113.024 159.68 122.29C159.864 125.038 159.864 131.054 159.697 135.98L159.596 138.979L157.921 139.197C150.129 140.169 144.549 142.883 143.342 146.302C142.203 149.502 144.834 153.004 150.464 155.802C151.335 156.238 152.089 156.606 152.123 156.623C152.156 156.64 152.022 157.511 151.838 158.55C151.235 161.817 151.084 163.744 151.184 167.313C151.285 171.117 151.62 173.362 152.542 176.16C154.268 181.422 157.2 184.689 160.819 185.359C162.344 185.644 163.903 185.359 165.712 184.471C168.913 182.879 172.281 178.473 174.158 173.412C175.465 169.877 176.303 165.973 176.537 162.32L176.654 160.527H177.425C178.598 160.527 182.301 160.058 184.178 159.689C186.155 159.287 188.652 158.5 190.143 157.83C191.032 157.427 191.182 157.411 191.115 157.645C190.931 158.198 190.194 162.823 189.892 165.219C189.523 168.285 189.456 178.59 189.808 181.137C190.814 188.493 192.406 193.704 195.036 198.379L195.891 199.903L195.187 200.942C194.802 201.529 193.914 202.752 193.227 203.673C177.341 224.903 153.581 237.101 128.094 237.101C102.021 237.101 80.3209 226.629 65.4579 206.84C64.0336 204.947 61.2185 200.691 61.0676 200.222C61.0006 200.021 61.2185 199.468 61.6709 198.697C64.486 193.888 66.3627 187.387 67.0162 180.299C67.1 179.243 67.1838 176.63 67.1838 174.518V170.664L68.8259 169.29C69.714 168.536 71.9594 166.559 73.8026 164.9L77.1539 161.884L77.2712 162.672C77.3215 163.108 77.4556 164.281 77.5729 165.303C77.9248 168.805 79.1647 173.262 80.522 176.01C81.9966 178.959 84.2755 181.606 86.303 182.779C89.4868 184.589 92.8884 184.019 95.8878 181.154C99.2056 177.987 101.468 172.826 102.49 166.057C102.842 163.661 102.892 157.377 102.574 154.998C101.887 150.088 100.345 145.48 98.3007 142.28L97.7143 141.375L102.004 136.751C119.146 118.236 137.059 96.6038 148.034 81.1549C148.956 79.8647 149.76 78.8426 149.827 78.9097C149.877 78.9599 150.43 80.5685 151.034 82.4786ZM232.722 115.974C237.028 117.163 240.648 120.648 243.195 126.027C248.205 136.65 248.456 152.618 243.882 168.151C240.195 180.651 233.66 191.693 226.153 198.194C219.601 203.841 213.217 205.751 207.788 203.707C205.978 203.02 204.705 202.182 202.979 200.523C198.053 195.832 195.07 187.387 194.55 176.713C193.813 162.052 198.354 145.145 206.397 132.545C207.771 130.384 210.419 126.949 211.977 125.256C219.099 117.565 226.522 114.248 232.722 115.974ZM29.4815 116.041C39.2674 118.085 49.9078 129.629 56.225 145.045C62.6763 160.795 64.0336 178.071 59.8109 190.688C58.5877 194.324 56.6942 197.608 54.5158 199.903C52.991 201.495 52.1196 202.165 50.4943 202.97C47.277 204.595 43.3224 204.93 39.5355 203.908C37.843 203.456 34.9274 202.015 33.0842 200.708C29.2804 198.027 24.8232 192.966 21.3881 187.42C15.1379 177.333 11.1331 166.157 9.52445 154.244C9.03851 150.608 8.90446 143.118 9.2731 139.582C9.99364 132.813 11.8369 126.915 14.5682 122.743C15.7244 120.983 18.3384 118.386 19.8465 117.498C22.7454 115.789 25.9459 115.303 29.4815 116.041Z" fill="#2a0478"/>
<path d="M111.941 198.63C111.471 198.898 111.103 199.501 111.086 200.054C111.086 200.674 111.656 201.462 113.063 202.769C115.359 204.88 118.241 206.606 121.341 207.695C122.464 208.097 122.698 208.13 123.201 207.963C123.921 207.712 124.324 207.142 124.324 206.371C124.324 205.5 123.787 205.031 121.978 204.344C119.112 203.255 116.967 201.897 114.94 199.903C114.286 199.267 113.616 198.663 113.432 198.563C113.013 198.328 112.426 198.362 111.941 198.63Z" fill="#2a0478"/>
<path d="M140.963 198.613C140.778 198.73 140.343 199.183 140.041 199.652C138.516 201.88 133.573 204.779 130.607 205.181C129.686 205.299 129.334 205.5 129.049 206.053C128.697 206.706 128.814 207.427 129.334 207.963C129.769 208.398 129.937 208.449 130.909 208.449C132.97 208.449 136.237 207.276 138.684 205.651C140.896 204.193 143.426 201.277 143.426 200.188C143.426 198.831 142.102 197.976 140.963 198.613Z" fill="#2a0478"/>
</svg>
