<svg width="512" height="512" viewBox="0 0 512 512" fill="none" xmlns="http://www.w3.org/2000/svg">
<g clip-path="url(#clip0_1_2)">
<path fill-rule="evenodd" clip-rule="evenodd" d="M256 42.667C284.015 42.6669 311.756 48.1848 337.639 58.9057C363.522 69.6266 387.04 85.3406 406.85 105.15C426.66 124.96 442.374 148.478 453.095 174.361C463.816 200.244 469.334 227.985 469.334 256C469.334 373.821 373.821 469.334 256 469.334C138.18 469.334 42.667 373.821 42.667 256C42.667 138.18 138.18 42.667 256 42.667ZM277.334 277.334H234.667C181.852 277.334 136.509 309.321 116.952 354.982C147.896 398.373 198.644 426.667 256 426.667C313.356 426.667 364.104 398.373 395.049 354.979C375.492 309.321 330.149 277.334 277.334 277.334ZM256 106.667C220.654 106.667 192 135.321 192 170.667C192 206.013 220.654 234.667 256 234.667C291.346 234.667 320 206.013 320 170.667C320 135.321 291.347 106.667 256 106.667Z" fill="black"/>
</g>
<defs>
<clipPath id="clip0_1_2">
<rect width="512" height="512" fill="white"/>
</clipPath>
</defs>
</svg>
